<svg xmlns="http://www.w3.org/2000/svg" version="1.1" viewBox="0 0 2048 2048" width="512" height="512" style="
    fill: #b8e4ff8f;
">
<path transform="translate(165,14)" d="m0 0h1704l62 1 18 3 15 5 17 9 12 9 7 6 9 11 9 14 7 16 3 11 2 16v1805l-2 19-4 16-6 13-6 11-8 11-16 16-16 10-15 7-14 4-13 2-15 1h-1783l-20-1-19-4-17-7-13-8-10-8-13-13-9-13-8-15-6-20-2-13-1-33v-1700l1-79 3-17 5-15 8-16 8-11 11-12 8-7 10-7 15-8 19-6 14-2zm-43 64-14 3-12 7-10 11-6 13-4 16-1 1v236l42 1h1849l1-235-1-14-4-12-7-11-9-8-12-6-10-2zm-42 353-2 1v1494l2 11 7 13 7 8 11 7 11 4 9 1h1799l11-2 10-4 9-7 7-7 6-11 2-8 1-9v-1491z"/>
<path transform="translate(561,620)" d="m0 0h136l8 2 9 6 6 7 4 11 9 60 27 10 20 9 17 9 11-7 11-8 22-15 9-6 9-3h12l12 5 10 9 82 82 6 10 3 10-1 11-6 12-14 20-13 19-5 9 8 16 9 19 7 19 3 9 12 3 47 10 10 4 8 7 6 12v141l-4 9-5 7-8 5-16 4-50 8-7 21-12 27-8 16 4 7 10 13 8 11 12 17 4 8 1 5v7l-4 13-7 9-83 83-9 6-11 4-9 1-11-4-21-14-30-21-5 1-15 8-26 11-19 6-3 13-10 48-4 11-9 10-8 4-5 1-17 1h-104l-17-1-10-4-8-7-5-9-4-22-7-44-32-12-23-11-7-4-5 1-11 8-22 15-15 10-10 4-9 1-13-4-9-7-85-85-6-10-3-9v-11l7-14 11-15 13-19 10-14-1-6-9-17-11-27-5-15-1-1-58-6-11-3-9-7-6-9-2-8v-136l4-10 6-8 8-5 16-4 46-7 3-1 7-18 8-20 11-22 1-5-9-14-16-23-10-15-3-8v-12l4-11 7-9 84-84 10-6 9-3h11l10 4 19 13 23 16 7 5 6-1 17-9 21-9 21-7h2l1-9 11-54 4-10 7-8 10-5zm32 66-3 16-6 35-4 13-7 9-9 5-16 5-24 8-21 9-16 8-19 9-10 2-9-1-9-4-45-30-5 3-7 8-34 34-2 1v2l-2 1 10 16 18 27 6 12 1 10-2 10-6 11-7 10-13 25-8 21-7 25-6 9-8 6-11 4-49 9-2 1v70l5 2 46 8 10 4 6 4 5 6 4 8 8 29 10 26 14 29 6 12 2 9-1 10-4 9-8 12-13 18-9 13 6 7 42 42 5-2 11-7 30-20 8-4 6-1h10l11 4 24 13 15 7 21 8 26 7 9 4 7 6 5 8 4 16 7 43 1 2 64 1 6-1 4-18 6-36 4-10 6-8 10-6 16-5 17-5 20-8 25-12 12-7 5-2 6-1h10l10 3 17 11 30 20 5-2 15-15 8-7 13-13 8-7 4-3-1-5-30-45-3-10v-11l4-11 12-22 10-22 9-28 5-17 7-11 6-4 20-4 42-7v-71l-8-2-44-8-10-4-8-7-6-12-10-32-11-26-13-26-5-12v-11l3-10 7-11 24-36-1-4-47-47-6 3-10 7-29 19-8 4-8 2-12-1-16-8-18-10-21-9-25-8-18-5-8-5-7-8-4-11-9-52-1-2z"/>
<path transform="translate(1333,1122)" d="m0 0h58l34 1 11 4 6 5 6 10 3 12 5 38v3l7 1 20 8 16 8 3 2h5l15-11 16-11 11-7 10-3h8l11 3 8 6 20 20 7 8 15 15 7 8 13 13 7 8 7 9 4 11v12l-4 9-10 16-11 15-7 10 1 5 8 16 8 19 4 10 42 9 13 4 11 8 7 10 3 8 1 5v108l-3 10-6 8-8 6-19 5-34 7-5 10-10 24-6 12 1 7 8 11 8 12 9 13 4 8 1 3v15l-4 10-11 12-8 8-8 7-18 18-8 7-14 14h-2v2l-8 7-9 6-7 3-5 1h-12l-12-6-11-8-23-16-6-2-29 11-17 6-6 27-5 23-5 10-8 7-10 4-8 1h-105l-10-2-9-6-6-7-4-9-7-34-3-14-15-5-16-7-16-8-4 1-10 7-16 11-15 10-8 3h-13l-11-4-12-11-15-16-13-13-7-8-18-18-14-16-6-12-1-4v-9l4-10 7-11 10-14 8-12 3-4-1-6-9-19-9-24-2-2-48-10-10-5-7-7-4-8-1-3-1-22v-88l2-11 5-10 9-8 11-4 40-8 5-2 7-18 9-20 4-8-1-5-11-16-12-17-6-11-2-6v-9l3-10 6-9 9-9h2v-2l8-7 13-13 8-7 17-17 8-7 13-13 6-4 5-2h16l12 6 11 8 23 16 7-1 43-16 10-48 4-9 7-8 9-5 3-1zm5 67-1 3-6 37-4 10-7 8-10 5-38 13-24 11-14 7-11 3h-7l-9-3-11-7-16-12-11-7v2l-4 2-1 3-3 1-7 8-19 19-2 1 2 4 14 19 7 10 5 10 1 4v10l-5 13-9 17-8 18-8 24-5 13-6 8-5 4-9 4-22 4-19 3-1 1v48l7 2 32 5 12 5 4 2 2 4 5 8 15 42 11 24 7 14 2 7v8l-3 10-7 11-8 11-10 14 2 5 35 35 3 1 16-12 17-12 6-3 5-1h12l9 3 17 9 23 10 30 10 10 4 5 4h2l2 4 5 9 3 15 4 27 3 2h38l8-1 2-6 6-36 5-10 9-8 12-5 23-7 21-9 28-14 6-1h12l9 3 14 10 18 13 5 2 9-10 26-26-4-7-13-18-7-10-4-10v-13l5-13 10-19 7-16 13-39 7-9 9-6 13-3 32-5v-15l-2-31-1-4-39-6-10-4-8-7-5-8-11-32-10-24-12-24-1-5v-12l4-11 8-11 13-18 3-4-2-4-32-32-4-1-14 10-18 13-10 4-4 1h-9l-13-5-19-10-21-9-15-5-19-6-8-6-6-7-4-11-6-38z"/>
<path transform="translate(619,834)" d="m0 0h22l20 2 25 5 19 6 21 9 17 9 16 11 10 8 10 9 13 13 13 17 9 14 6 10 9 20 8 24 5 23 2 16v39l-4 27-6 22-7 18-8 17-11 18-10 13-9 10-7 8-4 4h-2v2l-11 9-18 13-24 13-20 8-21 6-20 4-15 2h-36l-27-4-23-6-20-8-16-8-14-8-17-13-20-18-7-8-12-15-9-14-10-18-10-25-7-26-3-20-1-13v-20l2-22 5-25 5-16 7-18 11-21 10-15 11-14 15-16 10-9 16-12 16-10 15-8 21-8 21-6 24-4zm3 63-19 2-21 5-21 8-19 11-10 8-10 9-9 9-10 14-7 12-8 18-5 17-4 20-1 22 2 23 6 24 6 15 8 16 10 14 12 14 10 9 10 7 15 9 18 8 17 5 16 3 10 1h23l21-3 17-5 15-6 17-9 16-12 13-12 8-9 8-11 9-15 8-19 6-22 2-14v-30l-4-22-6-20-11-23-8-12-9-11-9-9-19-14-20-11-21-8-24-5-13-1z"/>
<path transform="translate(1348,1303)" d="m0 0h34l25 4 19 6 15 6 19 10 14 10 10 8 12 11 7 8 11 14 11 18 9 19 6 19 4 19 2 19v18l-3 26-6 22-7 18-10 19-12 17-12 14-9 9-11 9-14 10-20 11-21 8-19 5-18 3-24 1-21-2-20-4-21-7-21-10-14-9-13-10-15-14-11-12-10-14-10-17-8-18-6-19-4-20-1-7v-35l4-24 7-23 9-20 11-18 10-13 9-10 12-12 20-15 16-9 15-7 21-7 21-4zm5 66-17 3-18 6-15 8-12 9-10 9-9 10-10 16-7 15-4 13-3 16v25l4 20 6 16 8 15 10 13 6 7 8 7 13 9 17 9 15 5 16 3h29l18-4 15-6 12-6 14-10 13-12 12-16 8-14 7-19 3-16 1-15-2-20-5-19-8-18-9-14-11-12-7-7-10-7-14-8-15-6-17-4-8-1z"/>
<path transform="translate(1138,191)" d="m0 0h680l27 1 9 3 6 4 8 9 3 8 1 11-3 10-6 9-8 6-7 2-12 1h-713l-12-3-9-7-5-8-2-6v-15l4-10 7-8 9-5 4-1z"/>
<path transform="translate(1322,596)" d="m0 0 11 2 9 5 6 5 6 10 1 3v12l-4 10-8 10-7 7-11 9-12 11-8 7-14 12-10 9-14 12-11 10-8 7-14 12-10 9-6 4 6 7 14 12 12 11 11 9 13 12 8 7 14 12 11 10 8 7 14 12 3 2v2l4 2 8 7 6 8 4 8 1 3v12l-4 9-7 8-8 5-10 3h-8l-8-3-6-4-13-11-30-26-14-12-15-13-11-9-12-11-11-9-10-9-11-9-10-9-8-7-10-9-5-5-4-8-2-8v-10l4-13 4-6h2l2-4 11-9 15-13 10-9 11-9 14-12 15-13 14-12 10-9 11-9 10-9 11-9 12-11 14-11 7-3z"/>
<path transform="translate(1657,593)" d="m0 0 10 1 10 5 12 11 11 9 10 9 11 9 10 9 11 9 10 9 11 9 11 10 11 9 11 10 11 9 10 9 11 9 9 9 4 7 3 10v10l-4 13-8 10-11 9-12 11-11 9-14 12-30 26-28 24-10 9-11 9-10 9-11 9-10 8-11 4h-7l-10-3-9-6-6-7-4-9v-12l5-12 9-10 10-9 8-7 13-11 11-10 8-7 14-12 10-9 8-7 15-13 13-12 11-9v-4l-10-9-8-7-10-9-8-7-14-12-12-11-11-9-13-12-11-9-13-12-11-9-8-9-5-10-1-3v-12l4-9 7-8 9-5z"/>
<path transform="translate(264,121)" d="m0 0h31l14 3 13 5 15 8 10 8 13 13 9 14 6 12 5 16 2 12v22l-3 16-6 16-9 16-12 14-10 9-11 7-14 7-17 5-11 2h-21l-19-4-17-7-15-10-10-9-7-7-10-14-8-17-5-19-1-8v-16l3-17 7-19 9-15 8-10 10-10 13-9 16-8 12-4zm16 62-13 2-10 5-9 8-7 14-1 3v17l5 12 9 10 7 5 13 4h10l12-3 11-7 7-9 4-10 1-5v-11l-4-12-6-9-9-8-12-5z"/>
<path transform="translate(546,121)" d="m0 0h31l18 4 16 7 12 8 11 9 4 4v2h2l11 16 8 17 4 16 1 6v27l-4 17-6 15-8 13-7 9-13 13-16 10-16 7-16 4-6 1h-22l-18-4-13-5-13-7-14-11-8-8-11-15-8-16-5-18-1-6v-25l4-18 5-13 6-11 9-12 9-10 13-10 14-8 17-6zm15 62-12 2-11 6-9 9-5 9-2 8v13l4 11 6 9 8 7 8 4 8 2h11l11-3 10-5 8-8 4-8 1-3v-20l-4-11-6-9-9-7-8-4z"/>
<path transform="translate(832,121)" d="m0 0h30l17 4 16 7 15 10 12 11 8 9 8 13 7 16 4 16 1 7v18l-3 17-4 12-8 16-8 11-3 4h-2l-2 4-9 8-10 7-16 8-17 5-11 2h-21l-19-4-15-6-15-9-12-11-8-8-9-13-7-14-5-16-2-12v-19l3-16 5-15 8-15 10-13 11-11 14-10 17-8 14-4zm16 62-13 2-10 5-9 8-5 8-3 8-1 12 3 12 6 10 8 8 10 5 8 2h9l9-2 11-6 5-4 7-10 3-9 1-5v-8l-4-13-6-9-9-8-12-5z"/>
<path transform="translate(1559,553)" d="m0 0h13l10 4 7 6 6 10 2 6v12l-6 18-46 119-20 52-14 36-18 47-14 36-12 31-9 22-6 8-7 6-10 4-9 1-10-3-6-4-5-4-6-10-2-6v-11l5-15 17-44 15-38 6-16 18-47 22-57 15-39 14-36 18-47 9-22 6-9 7-6z"/>
</svg>