<svg xmlns="http://www.w3.org/2000/svg" version="1.1" viewBox="0 0 2048 2048" width="512" height="512" style="fill: #b8e4ff8f;">
<path transform="translate(731,1203)" d="m0 0h1197l16 2 10 5 10 9 7 14 1 6v569l-3 12-7 11-7 6-10 5-10 2-615 1-9 5-24 15-19 12-21 13-22 14-21 13-24 15-19 12-21 13-48 30-18 11-8 4-7 2h-15l-11-4-8-6-5-5-6-10-2-6v-20l15-105 1-4h-302l-13-4-8-6-8-9-4-9-2-14v-560l2-11 6-11 6-7 9-6 9-3zm42 81-1 19v460l308 1 13 4 11 8 7 10 3 9v18l-7 48-3 21 5-2 15-9 19-12 96-60 21-13 22-14 11-6 8-2 590-1v-479z"/>
<path transform="translate(91,83)" d="m0 0h1198l15 2 12 6 9 9 6 12 1 4 1 47v50l-1 478-3 10-7 10-8 7-8 4-10 2-616 1-7 4-48 30-19 12-48 30-19 12-16 10-21 13-48 30-21 13-9 4-4 1h-15l-10-3-9-6-8-9-5-10-1-4v-17l11-76 5-35h-302l-10-3-10-6-8-9-5-11-1-5v-573l4-12 7-9 7-6 10-5zm42 81v479l298 1 17 2 8 4 9 7 7 11 3 12-1 16-9 61v6l14-8 17-11 24-15 19-12 72-45 19-12 20-12 9-3 8-1h582l2-1v-479z"/>
<path transform="translate(1450,403)" d="m0 0h279l15 2 10 5 10 9 7 14 1 6v252l5 1 16 8 13 9 10 9 8 8 10 14 9 17 6 18 3 17v23l-3 17-4 13-5 13-10 16-9 11-11 11-14 10-17 9-7 2v171l-3 12-7 11-7 6-10 5-10 2h-889l-13-4-8-6-7-8-5-10-1-3v-18l5-12 7-9 11-7 8-3 7-1h841v-126l-9-3-16-9-14-11-12-12-11-15-8-15-6-17-3-14-1-10v-14l3-20 5-17 8-16 7-11 9-11 11-11 14-10 15-8 7-3 1-206h-245l-11-3-10-6-7-8-5-10-2-8v-10l3-11 6-10 9-8 10-5zm280 361-14 3-11 7-6 7-5 10-2 10v7l4 14 7 9 8 7 10 4 4 1h13l12-4 8-6 8-9 4-10 1-5v-10l-4-13-6-9-8-7-9-4z"/>
<path transform="translate(449,1043)" d="m0 0h122l14 2 11 6 9 9 6 12 1 3v18l-4 10-7 9-7 6-8 4-10 2-127 1-20 2-15 4-17 7-14 9-11 9-11 11-10 14-8 16-5 12 1 3 15 8 14 10 13 12 11 14 8 14 5 11 5 16 2 13v29l-3 15-6 18-9 17-8 11-11 12-12 10-15 9-10 5 3 10 7 16 10 15 11 12 10 9 14 9 14 7 16 5 18 3 129 1 15 2 11 6 9 9 6 12 1 3v18l-4 10-7 9-7 6-8 4-10 2h-137l-20-2-25-6-17-6-23-11-16-10-14-11-12-11-10-10-11-14-9-13-8-14-8-17-8-24-4-17-11-4-15-8-11-8-10-9-7-7-12-17-9-19-5-17-2-11v-28l4-20 8-20 9-15 9-12h2l2-4 12-11 16-10 15-7 5-1 4-18 8-24 11-23 9-14 12-16 15-16 13-12 17-12 17-10 22-10 20-6 21-4zm-165 242-11 4-9 7-6 8-4 10-1 5v10l4 13 7 10 10 7 7 3 5 1h12l13-4 9-7 6-7 4-8 2-11-1-12-4-9-6-9-9-7-11-4z"/>
<path transform="translate(694,287)" d="m0 0h51l3 3 39 90 10 24 2 4 2-3 17-38 12-28 13-30 9-20 3-2h49l1 1v235l-1 1h-47l-1-4v-132l-13 29-13 30-9 21-8 17-1 1h-25l-3-4-7-16-26-60-7-16-1-1v133l-1 2h-48z"/>
<path transform="translate(297,287)" d="m0 0h45l3 3-1 89h81l1-91 1-1h46l1 1 1 11v223l-1 2h-48l-1-96h-80v94l-1 2h-48v-236z"/>
<path transform="translate(1511,1409)" d="m0 0h26l17 3 17 5 20 9 12 7 1 4-8 17-8 16-4 9-4-1-13-8-20-8-18-4h-12l-9 2-6 4-4 6-1 6 3 8 4 5 12 6 45 14 16 7 12 7 11 11 8 13 4 16v23l-4 16-5 9-8 10-9 8-15 8-17 5-12 2h-30l-20-3-21-6-19-8-15-8-4-3 1-4 8-16 12-25 4-1 14 8 14 7 18 6 15 3h18l10-3 6-5 1-2v-10l-4-6-11-7-36-12-19-7-16-8-10-8-7-8-7-14-2-10v-20l4-16 5-11 6-9 9-10 15-10 12-5z"/>
<path transform="translate(1322,1409)" d="m0 0h20l19 3 17 5 18 8 16 9-2 6-8 17-8 16-2 6-4-1-14-8-16-7-13-4-7-1h-15l-10 3-5 5-3 6 1 10 6 7 12 6 39 12 20 8 13 8 10 9 7 10 4 10 2 7 1 8v16l-3 14-4 10-6 9-8 9-10 7-16 7-16 4-8 1h-30l-24-4-17-5-21-9-14-8-2-2 1-5 8-16 10-21 2-4 5 1 18 10 20 8 15 4 6 1h19l10-3 6-5 1-2v-10l-4-6-9-6-19-7-36-12-16-8-11-8-8-9-7-14-2-9v-21l4-17 7-14 8-10 9-8 13-8 14-5z"/>
<path transform="translate(1134,1409)" d="m0 0h18l19 3 16 6 12 7 11 9 9 10 9 14v3l-14 10-18 13-5 4-4-2-6-10-6-7-11-7-10-3h-21l-11 4-9 6-7 7-8 14-5 14-2 14v16l3 16 5 13 6 11 7 8 10 7 14 5h16l13-4 10-7 8-9 3-5 2-5 5 1 13 8 24 15 1 4-6 11-7 9h-2l-2 4h-2v2l-11 8-10 6-15 6-21 5h-26l-16-4-12-5-14-8-13-12-9-9-10-14-8-15-8-24-3-22v-13l3-20 5-16 7-16 9-14 10-12h2l1-3 14-11 12-7 13-5 14-3z"/>
<path transform="translate(503,287)" d="m0 0h167l1 1v48h-62v186l-1 2h-48l-1-187-62-1-1-1v-46z"/>
<path transform="translate(945,287)" d="m0 0h45l3 3-1 186h100v48h-148v-236z"/>
<path transform="translate(1240,1616)" d="m0 0"/>
</svg>