<svg xmlns="http://www.w3.org/2000/svg" xmlns:xlink="http://www.w3.org/1999/xlink" id="Layer_1" data-name="Layer 1" viewBox="0 0 206.91 46.99" style="
    fill: #b8e4ff8f"><defs><style>.cls-1{fill:none;}.cls-2{clip-path:url(#clip-path);}.cls-3{clip-path:url(#clip-path-2);}.cls-4{clip-path:url(#clip-path-3);}</style><clipPath id="clip-path" transform="translate(-1.85 -2.5)"><rect class="cls-1" x="4.1" y="2.5" width="48" height="47"/></clipPath><clipPath id="clip-path-2" transform="translate(-1.85 -2.5)"><rect class="cls-1" x="1.83" y="2.5" width="14.26" height="46.23"/></clipPath><clipPath id="clip-path-3" transform="translate(-1.85 -2.5)"><rect class="cls-1" x="40.1" y="2.5" width="13.74" height="46.23"/></clipPath></defs><g class="cls-2"><path d="M27.83,47.06a21.5,21.5,0,1,1,21.38-21.5A21.44,21.44,0,0,1,27.83,47.06Zm0-44.56A23.5,23.5,0,1,0,51.19,26,23.42,23.42,0,0,0,27.83,2.5" transform="translate(-1.85 -2.5)"/></g><g class="cls-3"><path d="M3.45,26A27.39,27.39,0,0,1,15,3.28a26.23,26.23,0,0,0,0,45.43A27.38,27.38,0,0,1,3.45,26" transform="translate(-1.85 -2.5)"/></g><g class="cls-4"><path d="M40.71,3.28A27.39,27.39,0,0,1,52.22,26,27.38,27.38,0,0,1,40.71,48.71a26.23,26.23,0,0,0,0-45.43" transform="translate(-1.85 -2.5)"/></g><path d="M67.65,30.88a2,2,0,0,1-1.56-.56,2.09,2.09,0,0,1-.54-1.52v-.42a1.07,1.07,0,0,0,.56-.45,1.44,1.44,0,0,0,.25-.77H66a1,1,0,0,1-.34.75,1.16,1.16,0,0,1-.7.2,1.27,1.27,0,0,1-.75-.2,1,1,0,0,1-.34-.75h-.33a1.36,1.36,0,0,0,.25.77,1.15,1.15,0,0,0,.56.45v.42a2.09,2.09,0,0,1-.54,1.52,2.06,2.06,0,0,1-1.56.56,2.79,2.79,0,0,1-1.23-.22,1.62,1.62,0,0,1-.67-.65,3.05,3.05,0,0,1-.27-1,12.84,12.84,0,0,1-.06-1.31V24.2a9.46,9.46,0,0,1,.06-1.07,3,3,0,0,1,.27-1,1.5,1.5,0,0,1,.65-.71,2.28,2.28,0,0,1,1.21-.27,2.73,2.73,0,0,1,1.41.31,1.93,1.93,0,0,1,.77.81,2.61,2.61,0,0,1,.29,1,6,6,0,0,1,.07.88v.66c0,.12.06.17.18.17s.19-.05.19-.17v-.66a7.49,7.49,0,0,1,.06-.88,3.29,3.29,0,0,1,.3-1,1.93,1.93,0,0,1,.77-.81,2.71,2.71,0,0,1,1.41-.31,2.31,2.31,0,0,1,1.21.27,1.41,1.41,0,0,1,.65.71,3.22,3.22,0,0,1,.27,1,9.46,9.46,0,0,1,.06,1.07v3.48A12.84,12.84,0,0,1,69.82,29a2.83,2.83,0,0,1-.29,1,1.51,1.51,0,0,1-.67.65A2.7,2.7,0,0,1,67.65,30.88Z" transform="translate(-1.85 -2.5)"/><path d="M70.51,25.59a5.52,5.52,0,0,1,0-.66,1.68,1.68,0,0,1,.25-.71,1.44,1.44,0,0,1,.63-.56,2.53,2.53,0,0,1,1.21-.23,2.31,2.31,0,0,1,1.14.23,1.34,1.34,0,0,1,.63.56,1.83,1.83,0,0,1,.25.71,4.24,4.24,0,0,1,.06.66v1.86a.48.48,0,0,0,.13.35.52.52,0,0,0,.35.13.61.61,0,0,0,.35-.11.42.42,0,0,0,.15-.37V25.59a5.52,5.52,0,0,1,0-.66,2.23,2.23,0,0,1,.25-.71,1.44,1.44,0,0,1,.65-.56,2.45,2.45,0,0,1,1.18-.23,2.38,2.38,0,0,1,1.17.23,1.34,1.34,0,0,1,.63.56,2,2,0,0,1,.25.71c0,.25,0,.47,0,.66V28.7c0,.19,0,.41,0,.66a2.18,2.18,0,0,1-.25.73,1.53,1.53,0,0,1-.63.57,3,3,0,0,1-1.19.2,2.37,2.37,0,0,1-1.39-.33,1.75,1.75,0,0,1-.59-.81l.07-1.13h-.23a2.66,2.66,0,0,1-2.75,2.27,2.61,2.61,0,0,1-1.29-.27,1.85,1.85,0,0,1-.73-.71,2.74,2.74,0,0,1-.32-.83,5.34,5.34,0,0,1-.06-.69Z" transform="translate(-1.85 -2.5)"/><path d="M82.61,30.86a2.9,2.9,0,0,1-1.17-.2,1.57,1.57,0,0,1-.62-.57,1.68,1.68,0,0,1-.25-.73,4.12,4.12,0,0,1,0-.66l0-5.36a5.18,5.18,0,0,1,0-.66,1.65,1.65,0,0,1,.23-.71,1.37,1.37,0,0,1,.64-.56,2.49,2.49,0,0,1,1.19-.23,2.41,2.41,0,0,1,1.17.23,1.26,1.26,0,0,1,.58.56,2,2,0,0,1,.23.71c0,.24,0,.45,0,.66l-.12,2.36h.22a2.71,2.71,0,0,1,2.75-2.25,2.55,2.55,0,0,1,1.3.29,1.81,1.81,0,0,1,.73.69,2.5,2.5,0,0,1,.29.83,3.75,3.75,0,0,1,.08.69V28.7c0,.19,0,.41,0,.66a2,2,0,0,1-.25.73,1.47,1.47,0,0,1-.63.57,2.92,2.92,0,0,1-1.18.2,3,3,0,0,1-1.19-.2,1.67,1.67,0,0,1-.63-.57,2.74,2.74,0,0,1-.25-.73,5.52,5.52,0,0,1,0-.66V26.84a.44.44,0,0,0-.14-.33.47.47,0,0,0-.34-.15.52.52,0,0,0-.35.13.4.4,0,0,0-.15.35V28.7a4.24,4.24,0,0,1-.06.66,1.82,1.82,0,0,1-.25.73,1.44,1.44,0,0,1-.62.57A3,3,0,0,1,82.61,30.86Z" transform="translate(-1.85 -2.5)"/><path d="M96.12,24.7a1.56,1.56,0,0,1,.29-.61,1.75,1.75,0,0,1,.63-.48,2.77,2.77,0,0,1,1.1-.18,2.38,2.38,0,0,1,1.17.23,1.27,1.27,0,0,1,.62.56,1.68,1.68,0,0,1,.25.71,4.37,4.37,0,0,1,.07.66v3.23a3.35,3.35,0,0,1-.09.67,1.69,1.69,0,0,1-.27.67,1.62,1.62,0,0,1-.64.52,3,3,0,0,1-1.13.18,2.77,2.77,0,0,1-1.1-.18,1.72,1.72,0,0,1-.63-.5,2,2,0,0,1-.29-.65,3.83,3.83,0,0,1-.06-.65v-.27H96a4.44,4.44,0,0,1-.5,1.21,1.93,1.93,0,0,1-.83.77,2.89,2.89,0,0,1-1.33.27,2.42,2.42,0,0,1-2-.95,4.39,4.39,0,0,1-.73-2.71,4.58,4.58,0,0,1,.73-2.77,2.38,2.38,0,0,1,2-1,2.56,2.56,0,0,1,1.39.39,2.85,2.85,0,0,1,1,1.06,2.82,2.82,0,0,1,.34,1.5h.35c0-.27,0-.56-.08-.85A4.36,4.36,0,0,0,96.12,24.7Zm-.37,2.5a.7.7,0,0,0-.23-.5.7.7,0,0,0-.52-.23.76.76,0,0,0-.55.23.7.7,0,0,0-.23.5.85.85,0,0,0,.23.58A.73.73,0,0,0,95,28a.66.66,0,0,0,.52-.23A.85.85,0,0,0,95.75,27.2Z" transform="translate(-1.85 -2.5)"/><path d="M110.18,25.7a2.75,2.75,0,0,1,.93-1.59,2.79,2.79,0,0,1,1.8-.6,2.51,2.51,0,0,1,1.29.29,2,2,0,0,1,.71.71,2.42,2.42,0,0,1,.31.83,4,4,0,0,1,.08.69V28.7a4.24,4.24,0,0,1-.06.66,1.82,1.82,0,0,1-.25.73,1.47,1.47,0,0,1-.63.57,2.85,2.85,0,0,1-1.18.2,2.9,2.9,0,0,1-1.17-.2,1.57,1.57,0,0,1-.62-.57,2.18,2.18,0,0,1-.25-.73,4.12,4.12,0,0,1,0-.66v-2a.46.46,0,0,0-.14-.38.53.53,0,0,0-.34-.1.6.6,0,0,0-.33.1c-.1.06-.14.18-.14.38v2a4.37,4.37,0,0,1-.07.66,1.82,1.82,0,0,1-.25.73,1.44,1.44,0,0,1-.62.57,3,3,0,0,1-1.19.2,2.83,2.83,0,0,1-1.17-.2,1.57,1.57,0,0,1-.62-.57,1.82,1.82,0,0,1-.25-.73,5.52,5.52,0,0,1,0-.66v-2a.5.5,0,0,0-.48-.48.64.64,0,0,0-.38.12.4.4,0,0,0-.14.36v2c0,.19,0,.41,0,.66a2.18,2.18,0,0,1-.25.73,1.67,1.67,0,0,1-.65.57,2.83,2.83,0,0,1-1.17.2,2.92,2.92,0,0,1-1.18-.2,1.6,1.6,0,0,1-.63-.57,2.43,2.43,0,0,1-.25-.73,5.52,5.52,0,0,1,0-.66v-3a5.76,5.76,0,0,1,0-.69,2.55,2.55,0,0,1,.25-.75,1.49,1.49,0,0,1,.65-.58,2.45,2.45,0,0,1,1.18-.23,2.31,2.31,0,0,1,1.07.21,1.42,1.42,0,0,1,.62.5,1.58,1.58,0,0,1,.31.62l0,.92H105a2.54,2.54,0,0,1,.92-1.59,2.84,2.84,0,0,1,1.81-.6,2.31,2.31,0,0,1,1.15.25,1.8,1.8,0,0,1,.7.6,2.61,2.61,0,0,1,.4.8l0,.54Z" transform="translate(-1.85 -2.5)"/><path d="M125.08,25.7a2.71,2.71,0,0,1,.94-1.59,2.76,2.76,0,0,1,1.79-.6,2.51,2.51,0,0,1,1.29.29,2,2,0,0,1,.71.71,2.42,2.42,0,0,1,.31.83,4,4,0,0,1,.08.69V28.7a4.24,4.24,0,0,1-.06.66,1.82,1.82,0,0,1-.25.73,1.44,1.44,0,0,1-.62.57,3.58,3.58,0,0,1-2.36,0,1.57,1.57,0,0,1-.62-.57,2.18,2.18,0,0,1-.25-.73,5.52,5.52,0,0,1,0-.66v-2a.47.47,0,0,0-.15-.38.5.5,0,0,0-.33-.1.61.61,0,0,0-.34.1c-.1.06-.14.18-.14.38v2a3.37,3.37,0,0,1-.07.66,1.82,1.82,0,0,1-.25.73,1.44,1.44,0,0,1-.62.57,3,3,0,0,1-1.19.2,2.75,2.75,0,0,1-1.16-.2,1.6,1.6,0,0,1-.63-.57,1.82,1.82,0,0,1-.25-.73,5.52,5.52,0,0,1,0-.66v-2a.43.43,0,0,0-.15-.34.42.42,0,0,0-.33-.14.64.64,0,0,0-.38.12.43.43,0,0,0-.14.36v2c0,.19,0,.41,0,.66a2,2,0,0,1-.25.73,1.67,1.67,0,0,1-.65.57,2.83,2.83,0,0,1-1.17.2,2.92,2.92,0,0,1-1.18-.2,1.67,1.67,0,0,1-.63-.57,2.43,2.43,0,0,1-.25-.73,5.52,5.52,0,0,1,0-.66v-3a5.76,5.76,0,0,1,0-.69,2.55,2.55,0,0,1,.25-.75,1.54,1.54,0,0,1,.65-.58,2.49,2.49,0,0,1,1.19-.23,2.3,2.3,0,0,1,1.06.21,1.42,1.42,0,0,1,.62.5,1.75,1.75,0,0,1,.32.62l0,.92h.21a2.54,2.54,0,0,1,.92-1.59,2.84,2.84,0,0,1,1.81-.6,2.28,2.28,0,0,1,1.15.25,1.91,1.91,0,0,1,.71.6,2.82,2.82,0,0,1,.39.8l0,.54Z" transform="translate(-1.85 -2.5)"/><path d="M136.29,24.7a1.58,1.58,0,0,1,.3-.61,1.71,1.71,0,0,1,.62-.48,2.84,2.84,0,0,1,1.1-.18,2.38,2.38,0,0,1,1.17.23,1.34,1.34,0,0,1,.63.56,2,2,0,0,1,.25.71,4.24,4.24,0,0,1,.06.66v3.23a3.3,3.3,0,0,1-.08.67,1.88,1.88,0,0,1-.28.67,1.62,1.62,0,0,1-.64.52,2.93,2.93,0,0,1-1.13.18,2.84,2.84,0,0,1-1.1-.18,1.72,1.72,0,0,1-.63-.5,2,2,0,0,1-.29-.65,3.83,3.83,0,0,1-.06-.65v-.27h-.06a4.78,4.78,0,0,1-.5,1.21,2,2,0,0,1-.84.77,2.86,2.86,0,0,1-1.33.27,2.42,2.42,0,0,1-2-.95,4.39,4.39,0,0,1-.73-2.71,4.58,4.58,0,0,1,.73-2.77,2.38,2.38,0,0,1,2-1,2.62,2.62,0,0,1,1.4.39,2.94,2.94,0,0,1,1,1.06,2.72,2.72,0,0,1,.33,1.5h.35c0-.27,0-.56-.08-.85A3.7,3.7,0,0,0,136.29,24.7Zm-.37,2.5a.7.7,0,0,0-.23-.5.68.68,0,0,0-.52-.23.74.74,0,0,0-.54.23.67.67,0,0,0-.23.5.81.81,0,0,0,.23.58.7.7,0,0,0,.54.23.65.65,0,0,0,.52-.23A.85.85,0,0,0,135.92,27.2Z" transform="translate(-1.85 -2.5)"/><path d="M148.7,30.86a2.88,2.88,0,0,1-1.12-.18,1.6,1.6,0,0,1-.6-.5,2,2,0,0,1-.3-.65,3.83,3.83,0,0,1-.06-.65v-.27h-.06a4.78,4.78,0,0,1-.5,1.21,2,2,0,0,1-.83.77,2.93,2.93,0,0,1-1.34.27,2.42,2.42,0,0,1-2-.95,4.32,4.32,0,0,1-.75-2.71,4.51,4.51,0,0,1,.75-2.77,2.38,2.38,0,0,1,2-1,2.43,2.43,0,0,1,1.38.39,2.54,2.54,0,0,1,.93,1,2.91,2.91,0,0,1,.36,1.42v.1h.35c0-.11,0-.22,0-.35s0-.3-.06-.52,0-.52-.08-.9-.08-.86-.13-1.45a3,3,0,0,1,.08-.65,1.93,1.93,0,0,1,.3-.65,1.44,1.44,0,0,1,.62-.5,3.48,3.48,0,0,1,2.21,0,1.51,1.51,0,0,1,.62.5,1.49,1.49,0,0,1,.3.65,3,3,0,0,1,.08.65v5.66a3.3,3.3,0,0,1-.08.67,2.05,2.05,0,0,1-.27.67,1.74,1.74,0,0,1-.65.52A2.93,2.93,0,0,1,148.7,30.86Zm-3.12-4.39a.74.74,0,0,0-.54.23.67.67,0,0,0-.23.5.81.81,0,0,0,.23.58.7.7,0,0,0,.54.23.65.65,0,0,0,.52-.23.85.85,0,0,0,.23-.58.7.7,0,0,0-.23-.5A.68.68,0,0,0,145.58,26.47Z" transform="translate(-1.85 -2.5)"/><path d="M158.47,23.24v1.1a.43.43,0,0,0,.08.27.31.31,0,0,0,.25.11.32.32,0,0,0,.25-.11.41.41,0,0,0,.1-.29v-1a5.18,5.18,0,0,1,0-.66,2,2,0,0,1,.23-.71,1.44,1.44,0,0,1,.63-.56,2.49,2.49,0,0,1,1.19-.23,2.45,2.45,0,0,1,1.18.23,1.29,1.29,0,0,1,.63.56,1.83,1.83,0,0,1,.25.71c0,.24,0,.45,0,.66v1.48a5.24,5.24,0,0,1-.25,1.31,2.45,2.45,0,0,1-.71,1.15,3.5,3.5,0,0,1-1.48.77v.65a4.24,4.24,0,0,1-.06.66,1.82,1.82,0,0,1-.25.73,1.44,1.44,0,0,1-.62.57,2.94,2.94,0,0,1-1.19.2,2.9,2.9,0,0,1-1.17-.2,1.57,1.57,0,0,1-.62-.57,2.18,2.18,0,0,1-.25-.73,4.12,4.12,0,0,1-.05-.66v-.25h1.13v-.4h-.75a2.4,2.4,0,0,1-2.15-1,4.85,4.85,0,0,1-.66-2.71v-1a5.18,5.18,0,0,1,0-.66,2,2,0,0,1,.25-.71,1.37,1.37,0,0,1,.64-.56,2.52,2.52,0,0,1,1.19-.23,2.72,2.72,0,0,1,1.13.2,1.48,1.48,0,0,1,.62.53,1.65,1.65,0,0,1,.27.66A3.91,3.91,0,0,1,158.47,23.24Z" transform="translate(-1.85 -2.5)"/><path d="M163.94,27.22a3.93,3.93,0,0,1,.5-2,3.22,3.22,0,0,1,1.46-1.31,5.3,5.3,0,0,1,2.35-.48c.14,0,.36,0,.67,0a4.73,4.73,0,0,1,1.06.23,3.57,3.57,0,0,1,1.11.54,3,3,0,0,1,.89,1,3.61,3.61,0,0,1,.36,1.71,4.11,4.11,0,0,1-.5,2.06,3.43,3.43,0,0,1-1.44,1.33,5,5,0,0,1-2.29.48,7.77,7.77,0,0,1-.86-.06,5.24,5.24,0,0,1-1.1-.25,3.61,3.61,0,0,1-1.06-.6,3,3,0,0,1-.84-1.07A3.87,3.87,0,0,1,163.94,27.22Zm3.46-.09a.8.8,0,0,0,.23.57.71.71,0,0,0,.52.23.68.68,0,0,0,.52-.23.85.85,0,0,0,.23-.57.74.74,0,0,0-.23-.5.67.67,0,0,0-.52-.22.77.77,0,0,0-.75.72Z" transform="translate(-1.85 -2.5)"/><path d="M172.9,25.59a5.52,5.52,0,0,1,0-.66,1.68,1.68,0,0,1,.25-.71,1.44,1.44,0,0,1,.63-.56,2.53,2.53,0,0,1,1.21-.23,2.31,2.31,0,0,1,1.14.23,1.34,1.34,0,0,1,.63.56,1.83,1.83,0,0,1,.25.71,4.24,4.24,0,0,1,.06.66v1.86a.51.51,0,0,0,.12.35.57.57,0,0,0,.36.13.61.61,0,0,0,.35-.11.42.42,0,0,0,.15-.37V25.59a5.52,5.52,0,0,1,0-.66,2.23,2.23,0,0,1,.25-.71,1.39,1.39,0,0,1,.65-.56,2.45,2.45,0,0,1,1.18-.23,2.38,2.38,0,0,1,1.17.23,1.34,1.34,0,0,1,.63.56,2,2,0,0,1,.25.71c0,.25,0,.47,0,.66V28.7c0,.19,0,.41,0,.66a2.18,2.18,0,0,1-.25.73,1.53,1.53,0,0,1-.63.57,3,3,0,0,1-1.19.2,2.37,2.37,0,0,1-1.39-.33,1.75,1.75,0,0,1-.59-.81l.07-1.13h-.23a2.66,2.66,0,0,1-2.75,2.27,2.61,2.61,0,0,1-1.29-.27,1.85,1.85,0,0,1-.73-.71,2.74,2.74,0,0,1-.32-.83,5.34,5.34,0,0,1-.06-.69Z" transform="translate(-1.85 -2.5)"/><path d="M182.89,26.13a4.34,4.34,0,0,1,0-.58,3.82,3.82,0,0,1,.23-.73,2.09,2.09,0,0,1,.59-.69,3.17,3.17,0,0,1,1.06-.5,6.16,6.16,0,0,1,1.71-.2,8.69,8.69,0,0,1,1.79.18,6.4,6.4,0,0,1,1.65.59l.08.06a.8.8,0,0,1,.17.21.7.7,0,0,1,.1.37,1.51,1.51,0,0,1-.23.82.75.75,0,0,1-.65.35,2.6,2.6,0,0,1-.79-.17,4,4,0,0,0-1.33-.18V26a5.62,5.62,0,0,1,1,.14,3.88,3.88,0,0,1,1,.36,1.94,1.94,0,0,1,.77.64,1.72,1.72,0,0,1,.34,1,2.4,2.4,0,0,1-1.77,2.5,6.3,6.3,0,0,1-1.86.25l-.73,0a9.94,9.94,0,0,1-1-.1,5.38,5.38,0,0,1-1-.21,2.25,2.25,0,0,1-.77-.4.74.74,0,0,1-.31-.62,1.44,1.44,0,0,1,.23-.83.77.77,0,0,1,.67-.36,1.32,1.32,0,0,1,.45.11l.65.18a3.35,3.35,0,0,0,.79.09h.21l.23,0v-.3a7.85,7.85,0,0,1-1.17-.08A4.54,4.54,0,0,1,184,28a2.28,2.28,0,0,1-.79-.69A2.15,2.15,0,0,1,182.89,26.13Z" transform="translate(-1.85 -2.5)"/><path d="M191.11,25.59a5.52,5.52,0,0,1,0-.66,1.68,1.68,0,0,1,.25-.71,1.44,1.44,0,0,1,.63-.56,2.53,2.53,0,0,1,1.21-.23,2.31,2.31,0,0,1,1.14.23,1.29,1.29,0,0,1,.63.56,1.83,1.83,0,0,1,.25.71,4.24,4.24,0,0,1,.06.66v1.86a.48.48,0,0,0,.13.35.52.52,0,0,0,.35.13.56.56,0,0,0,.35-.11.42.42,0,0,0,.15-.37V25.59a5.52,5.52,0,0,1,0-.66,2.23,2.23,0,0,1,.25-.71,1.44,1.44,0,0,1,.65-.56,2.49,2.49,0,0,1,1.19-.23,2.34,2.34,0,0,1,1.16.23,1.34,1.34,0,0,1,.63.56,1.83,1.83,0,0,1,.25.71c0,.25,0,.47,0,.66V28.7c0,.19,0,.41,0,.66a2,2,0,0,1-.25.73,1.53,1.53,0,0,1-.63.57,3,3,0,0,1-1.19.2,2.37,2.37,0,0,1-1.39-.33,1.66,1.66,0,0,1-.58-.81l.06-1.13h-.23a2.66,2.66,0,0,1-2.75,2.27,2.63,2.63,0,0,1-1.29-.27,1.85,1.85,0,0,1-.73-.71,2.47,2.47,0,0,1-.31-.83,4.19,4.19,0,0,1-.07-.69Z" transform="translate(-1.85 -2.5)"/><path d="M206.52,23.51h1a2,2,0,0,1,.52.12,1,1,0,0,1,.5.38,1.86,1.86,0,0,1,0,1.79,1,1,0,0,1-.58.33,2.46,2.46,0,0,1-.57.07h-.6v2.52a4.14,4.14,0,0,1-.06.66,1.83,1.83,0,0,1-.25.71,1.53,1.53,0,0,1-.63.57,3.25,3.25,0,0,1-2.35,0,1.67,1.67,0,0,1-.65-.57,2.23,2.23,0,0,1-.25-.71,5.4,5.4,0,0,1,0-.66V26.2h-.23a2.7,2.7,0,0,1-.6-.07.92.92,0,0,1-.56-.35,1.48,1.48,0,0,1-.23-.94,1.38,1.38,0,0,1,.23-.91,1,1,0,0,1,.56-.34,2.76,2.76,0,0,1,.6-.08h.23a3.05,3.05,0,0,1,.11-.85,1.82,1.82,0,0,1,.43-.78,2.39,2.39,0,0,1,.94-.52,6.07,6.07,0,0,1,1.63-.18l1,0a5.54,5.54,0,0,1,.67.06l.13,0a1.3,1.3,0,0,1,.33.13.86.86,0,0,1,.31.29.81.81,0,0,1,.15.52,1.09,1.09,0,0,1-.13.6.48.48,0,0,1-.33.23,1.64,1.64,0,0,1-.38,0h-.81Z" transform="translate(-1.85 -2.5)"/><path d="M26.92,20.47v2.42a.83.83,0,0,0,.21.58.74.74,0,0,0,.54.23.68.68,0,0,0,.52-.23.89.89,0,0,0,.23-.61V20.7a11.19,11.19,0,0,1,.1-1.46A4.29,4.29,0,0,1,29,17.68a3.22,3.22,0,0,1,1.38-1.23A5.6,5.6,0,0,1,33,16a5.73,5.73,0,0,1,2.58.48,3.22,3.22,0,0,1,1.4,1.23,4.15,4.15,0,0,1,.54,1.56,11.19,11.19,0,0,1,.1,1.46v3.21A11.35,11.35,0,0,1,37,26.8a6.18,6.18,0,0,1-1.58,2.5A7.37,7.37,0,0,1,32.25,31v1.37a13.61,13.61,0,0,1-.1,1.48,4.19,4.19,0,0,1-.55,1.55,3.17,3.17,0,0,1-1.39,1.22,5.76,5.76,0,0,1-2.58.48,5.65,5.65,0,0,1-2.55-.48,3.16,3.16,0,0,1-1.37-1.22,4.55,4.55,0,0,1-.54-1.55,10,10,0,0,1-.11-1.48v-.54h2.46V31H23.88a5.28,5.28,0,0,1-4.69-2.15A10.21,10.21,0,0,1,17.73,23c0-.26,0-.58,0-.94s0-.81,0-1.31a9.78,9.78,0,0,1,.11-1.46,4,4,0,0,1,.54-1.56,3.25,3.25,0,0,1,1.37-1.23A5.78,5.78,0,0,1,22.38,16a5.54,5.54,0,0,1,2.45.44,3.11,3.11,0,0,1,1.36,1.14A3.73,3.73,0,0,1,26.77,19,7.7,7.7,0,0,1,26.92,20.47Z" transform="translate(-1.85 -2.5)"/></svg>