<svg xmlns="http://www.w3.org/2000/svg" version="1.1" viewBox="0 0 2048 2048" width="512" height="512" style="&#10;    fill: #b8e4ff8f;">
<path transform="translate(1007,61)" d="m0 0h35l23 3 26 6 20 7 18 8 23 12 17 11 19 14 15 13 10 9 25 25 7 8 14 17 15 20 11 16 11 17 12 20 14 25 9 17 11 23 17 38 15 38 1 5 48-7 49-5 38-2h49l41 3 32 4 26 5 28 7 33 11 25 11 23 12 21 14 13 10 11 9v2l4 2 12 12 9 11 10 13 12 20 8 16 8 20 6 21 4 21 2 15 1 17v19l-2 29-5 30-6 26-9 29-10 27-12 27-18 36-16 27-13 21-19 28-14 19-12 16-11 14-12 15-1 5 8 9 13 17 8 10 14 19 12 17 10 15 11 17 12 20 12 21 11 21 12 26 13 33 10 31 6 24 5 29 2 18 1 17v17l-2 29-4 22-6 22-7 19-11 23-12 19-11 14-11 12-17 17-17 13-13 9-15 9-23 12-27 11-25 8-32 8-35 6-38 4-14 1h-73l-50-4-40-5-26-4h-3l-22 54-15 33-18 36-13 23-12 20-18 27-14 19-18 22-18 20-18 18-11 9-10 9-11 8-16 11-15 9-23 12-23 9-21 6-19 4-17 2-24 1-25-2-17-3-16-4-24-8-24-11-20-11-12-8-14-10-16-13-12-11-8-7-14-14-7-8-10-11-11-14-14-18-20-30-14-23-10-18-8-14-11-23-12-25-16-38-8-21-2-8-25 4-38 5-32 3-29 2h-73l-43-4-31-5-27-6-27-8-20-7-29-13-15-8-16-10-14-10-11-9-10-9-17-17-13-17-10-15-12-23-9-23-6-22-4-23-2-18v-36l3-29 5-28 10-37 9-26 12-29 14-29 15-28 9-15 13-21 19-28 28-38 13-16 9-11 1-5-10-12-11-14-10-13-14-19-14-20-10-15-13-21-13-22-15-28-14-30-12-31-8-24-7-27-5-25-3-23-1-11v-37l3-26 6-27 9-27 9-19 12-20 9-12 9-11 11-12 9-9 11-9 13-10 17-11 18-10 21-10 23-9 29-9 30-7 31-5 25-3 34-2h49l48 3 38 4 49 7 3-10 13-33 19-43 16-32 13-23 9-16 14-22 14-20 12-16 18-22 15-16 7-8 8-7 9-9 11-9 15-12 24-16 18-10 23-11 30-10 25-5zm4 128-16 3-17 6-21 11-11 8-10 8-10 9-7 6v2h-2l-7 8-9 10-11 14-13 18-12 19-13 21-13 24-12 23-15 33-11 27 1 4 36 10 47 15 38 13 35 13 28 11 29 12 7 3h6l36-15 36-14 44-16 48-16 41-12 16-5-3-10-10-24-11-24-11-23-12-22-13-22-14-22-12-17-12-15-9-11-7-8h-2l-2-4-15-14-13-10-14-9-17-9-18-6-16-3zm-521 338-30 2-26 3-26 5-24 7-20 8-18 10-14 10-13 12-10 13-8 14-5 11-5 16-3 25v12l3 25 6 26 8 24 11 26 13 27 12 22 12 20 11 17 8 12 13 18 14 19 11 14h3l22-22 2-1v-2l4-2 13-13 8-7 10-9 8-7 10-9 14-12 11-9 17-14 16-13 17-13 27-21 9-63 11-64 11-52 12-50v-6l-40-5-35-3-17-1zm1016 0-43 3-42 5-7 2 4 17 13 57 8 40 10 58 8 57 3 7 12 9 18 14 13 10 11 9 13 11 14 11 11 10 11 9 14 13 8 7 20 18 9 9 8 7 7 7 6 5 2 3 4-1 12-16 10-13 12-17 18-27 15-25 12-22 8-15 11-24 10-27 7-25 4-20 1-7v-34l-3-17-6-18-9-17-8-11-11-12-14-11-13-8-16-8-18-7-26-7-29-5-31-3-19-1zm-745 36-3 9-11 45-10 48-1 6 5-2 17-10 13-8 29-17 24-14 41-22-1-3-50-17-48-14zm525 1-40 11-29 9-32 11v3l23 12 23 13 28 16 28 17 17 10 9 5-1-9-10-49-12-49zm-263 97-27 13-23 11-26 13-22 12-30 16-21 12-24 14-27 16-24 15-19 12-42 28-25 17-3 32-3 46-2 58v94l2 53 4 61 2 17 5 4 19 13 27 18 23 15 24 15 28 17 29 17 45 25 32 17 29 15 39 19 11 5 6-2 27-13 23-11 29-15 22-12 12-6 23-13 25-14 13-8 22-13 21-13 22-14 26-17 15-10 25-17 2-3 3-32 3-50 2-66v-61l-2-66-3-50-2-29-2-6-12-9-51-34-22-14-21-13-20-12-22-13-28-16-50-27-35-18-37-18-11-5zm-446 285-13 12-11 9-16 15-8 7-18 18-2 1v2l-4 2-8 8 2 4 10 9 16 16 8 7 8 8 8 7 15 13 10 9 5 2-1-18v-131zm895 0v149l4-2 12-11 8-7 11-10 8-7 8-8 8-7 22-22-6-7-12-12-8-7-12-12-8-7-14-13-11-9-9-8zm166 170-14 14-8 7-14 14-8 7-13 12-11 9-13 12-11 9-15 13-14 11-13 11-26 20-18 14-2 3-5 33-7 46-8 46-10 48-11 47-2 7v6l18 3 37 4 28 2 23 1h24l39-2 34-4 29-6 20-6 21-9 15-8 14-10 12-11 8-9 10-15 8-18 5-20 1-7v-33l-3-20-6-24-9-26-13-30-9-17-8-16-16-27-14-22-12-17-13-18-10-13-8-10zm-1229 1-4 6-14 18-24 34-14 22-13 22-9 16-8 16-12 26-10 26-7 24-4 20-2 23v10l3 23 6 20 10 19 10 13 13 13 15 11 12 7 23 10 19 6 27 6 29 4 26 2 23 1h24l40-2 50-5 17-3-1-9-14-59-10-50-11-66-6-45-2-6-12-10-12-9-28-22-17-14-14-12-10-8-12-11-8-7-14-12-16-15-34-32zm328 253-1 2 13 61 11 45 7-1 48-14 36-12 14-4-2-4-54-30-27-16-29-17-15-10zm575 1-16 9-21 13-24 14-28 16-29 16-10 6 1 2 16 5 40 13 45 13h3l6-21 9-37 9-44 1-5zm-289 150-11 5-28 11-25 10-41 15-26 9-33 11-57 17-2 1 2 5 12 29 11 24 8 17 10 19 15 26 15 24 12 17 14 18 9 10 7 8 16 16 14 11 15 10 17 9 21 7 21 3h13l19-3 16-5 16-7 18-11 16-13 13-12 8-8 7-8 11-13 10-14 8-11 11-17 15-25 13-24 15-30 14-32 7-17-1-4-60-18-54-18-51-19-55-22z"/>
<path transform="translate(1009,829)" d="m0 0h32l21 3 20 5 17 6 17 8 16 10 12 9 14 12 10 10 11 14 9 13 9 16 9 21 6 20 4 24 1 13v17l-3 26-5 20-5 15-9 20-11 18-13 17-13 14-8 7-17 13-15 9-21 10-21 7-24 5-24 2-23-1-20-3-21-6-16-6-16-8-18-11-16-13-20-20-10-13-12-19-9-19-8-24-5-25-1-9v-30l3-22 6-23 8-20 8-16 9-14 10-13 9-10 13-13 20-15 21-12 19-8 23-7z"/>
</svg>