<svg xmlns="http://www.w3.org/2000/svg" version="1.1" viewBox="0 0 2048 2048" width="512" height="512" style="&#10;    fill: #b8e4ff8f;">
<path transform="translate(498,423)" d="m0 0h1247l15 3 14 6 14 10 8 8 9 14 5 12 2 8 1 9v392h178l12 2 16 8 9 7 9 10 6 11 5 10v645l-2 1-3 8-7 12-9 10-10 7-8 4-9 3-15 2h-294l-14-2-13-5-10-7-5-5-9-10-8-17-2-10-1-88 1-103-360 1-1 11-1 12v40l3 20 5 19 6 16 8 16 9 14 10 13 12 13 13 12 19 14 22 14 8 7 2 4v8l-4 7-6 5-7 1h-494l-9-3-5-6-1-3v-10l2-4 9-7 16-10 18-13 14-12 15-15 11-14 10-16 8-16 8-24 4-19 2-24v-14l-2-28-1-7-6-1h-269l-13-1v148l-1 17-5 19-8 16-8 11-9 10-7 6-14 9-14 6-18 4-13 1h-495l-17-2-14-4-16-8-11-8-10-9-8-10-6-10-5-10-6-18v-748l3-8 5-13 7-13 11-14 11-10 14-9 14-6 16-4 20-1h328l1-223 2-16 6-16 8-13 8-9 10-8 16-8 11-3zm8 32-14 2-11 6-8 7-8 14-2 9v228h42l1-6 1-205 3-5v-2l6-3 9-1h1198l6 2 6 5 2 6 1 373h42l1-11v-327l-1-56-3-10-6-10-8-8-10-5-6-2-8-1zm32 76v190h37l26 1 18 4 14 6 15 10 12 11 9 12 8 15 5 16 1 6 1 17 1 452h943l2-1 1-329 4-16 6-11 8-10 10-8 14-7 12-3 20-1v-354zm-450 222-14 3-12 6-10 8-8 9-8 14-3 10-1 7v629h620v-630l-2-10-5-12-6-10-11-11-14-8-7-3-10-2zm1606 164-12 2-9 6-6 7-3 5-1 4-1 13v513l1 1h352l1-1v-520l-2-10-6-10-8-6-8-3-14-1zm-66 385-943 1v43h944l1-1v-42zm-590 76-32 1 2 27v27l-2 23-5 25-8 24-12 25-7 11-8 11-9 11-9 10-10 10-10 8v1l50 1h287l50-1-16-16h-2l-2-4-9-9-13-17-9-14-7-12-10-24-7-25-4-26-1-14v-21l2-25v-6l-7-1zm-1006 93v65l4 16 7 13 11 12 10 7 8 4 14 4 12 1h485l15-1 17-5 14-9 9-9v-2h2l7-12 4-12 1-7v-65zm1630 29v58l1 11 6 12 8 7 10 4 11 1h91l201-1 9-3 6-4 7-8 3-7 1-8v-62z"/>
<path transform="translate(288,1515)" d="m0 0h106l9 1 8 6 3 6v7l-3 6-7 6-7 1h-114l-6-3-6-7-1-3v-7l6-9 5-3z"/>
<path transform="translate(1795,1530)" d="m0 0h87l7 3 6 7 1 9-5 9-6 4-26 1h-59l-9-2-7-7-1-2v-11l4-6 5-4z"/>
<path transform="translate(1794,943)" d="m0 0h88l7 3 6 7 1 9-4 8-5 4-2 1-79 1-13-1-8-7-2-4v-9l4-7 5-4z"/>
</svg>