<svg xmlns="http://www.w3.org/2000/svg" version="1.1" viewBox="0 0 2048 2048" width="512" height="512" style="&#10;    fill: #b8e4ff8f;">
<path transform="translate(95,63)" d="m0 0h189l15 2 10 6 7 8 4 11v69h160l20 2 16 5 16 8 14 11 7 7 8 11 7 12 6 17 2 12v203h415v-127h-69l-11-4-9-8-6-12-1-10v-192l2-9 4-8 5-5 5-4 8-4 8-1h189l15 2 10 6 7 8 4 10v206l-7 14-8 7-8 3-6 1h-66l-1 127h415v-195l2-16 5-16 8-16 10-13 10-10 13-9 15-7 14-4 18-2h161v-64l2-10 4-8 5-5 5-4 8-4 8-1h189l15 2 10 6 7 8 4 11v205l-4 9-4 6-7 6-13 4h-202l-11-4-10-9-4-8-2-11v-64l-160 1-11 2-9 6-6 8-3 8-1 11-1 187h157l23 2 16 5 16 8 14 11 7 7 8 11 7 12 6 17 2 12v984l-3 15-6 15-8 14-13 15-13 10-16 8-16 5-14 2-152 1-14-1v191l2 12 5 9 7 6 11 4 165 1v-65l2-9 4-8 3-4h2v-2l10-6 12-2h189l11 1 9 4 9 8 5 9 1 4v206l-7 14-8 7-8 3-6 1h-201l-11-4-10-9-5-11-1-9v-63h-168l-14-2-15-5-15-8-10-8-13-13-9-14-5-10-4-12-2-11-1-11v-194h-414l-1 127h63l12 2 10 6 7 8 3 6 1 4v206l-7 14-8 7-8 3-6 1h-201l-11-4-9-8-6-12-1-10v-191l2-10 4-8 3-4h2v-2l10-6 9-2h66v-127h-414l-1 204-3 15-6 15-8 14-13 15-13 10-16 8-16 5-13 2h-167v23l-1 48-4 9-4 6-7 6-8 3-6 1h-201l-11-4-9-8-5-9-2-14v-190l2-10 4-8 5-5 8-6 5-2 8-1h189l15 2 10 6 7 8 4 10v70l166-1 10-4 4-3h2l2-4 4-7 2-7 1-197-3 1-166-1-17-3-13-5-13-7-10-8-13-13-9-14-5-10-4-12-2-11-1-11v-966l2-16 5-16 8-16 10-13 10-10 10-7 15-8 17-5 19-2h160l-1-198-5-12-8-7-10-4-7-1-159-1v23l-1 48-4 10-9 10-10 4-6 1h-201l-11-4-9-8-6-12-1-11v-190l2-10 4-8 5-5 5-4 8-4zm34 65-1 3v124h127v-127zm832 0-1 3v124h127v-127zm832 0-1 2v125h127v-127zm-1442 384-11 2-9 6-6 7-4 10-1 11v91l1404 1 3-1v-102l-5-12-7-7-8-4-11-2zm-30 192-1 24v775l2 12 5 9 8 7 11 4h1356l10-4 6-4 6-8 3-10v-805zm-192 1088-1 3v124h127v-127zm832 0-1 2v125h127v-127zm832 0-1 2v125h127v-127z"/>
<path transform="translate(472,832)" d="m0 0h16l9 4 8 7 5 8 2 7v525l-4 10-8 9-10 5-6 1h-10l-11-4-9-8-6-12-1-9v-512l2-10 4-8 5-6 10-6z"/>
<path transform="translate(737,1151)" d="m0 0h382l2 3-1 62-64 1h-72l-248-1-1-1v-62z"/>
<path transform="translate(865,1247)" d="m0 0h382l2 3-1 62h-384l-1-1v-62z"/>
<path transform="translate(1313,1151)" d="m0 0h285l3 3-1 62-286 1-3-2v-62z"/>
<path transform="translate(703,799)" d="m0 0 12 2 8 4 7 7 5 9 1 4v14l-4 10-8 9-44 29-9 6-3 3 10 7 42 28 10 9 5 9 1 3v16l-6 12-7 7-9 4-4 1h-13l-10-4-44-29-43-29-10-7-8-7-6-12-1-10 2-10 5-8 4-5 39-26 43-29 15-10 9-5z"/>
<path transform="translate(957,799)" d="m0 0 11 1 14 7 90 60 10 9 5 9 1 3v16l-6 12-10 9-20 13-75 50-11 4h-12l-11-4-9-8-6-12v-16l4-10 6-7 54-36 4-3-11-8-42-28-9-8-6-12-1-8 2-11 5-10 8-7 10-4z"/>
<path transform="translate(862,767)" d="m0 0 13 2 8 4 7 7 6 12v15l-6 20-13 38-14 43-14 41-13 40-7 18-6 8-8 6-9 3h-12l-11-4-9-8-6-12-1-8 3-15 62-186 6-12 8-7 9-4z"/>
<path transform="translate(609,1343)" d="m0 0h190l2 3-1 62h-192l-1-1v-62z"/>
<path transform="translate(609,1055)" d="m0 0h191l1 7-1 58h-192l-1-1v-62z"/>
<path transform="translate(1312,1247)" d="m0 0h127l2 3v60l-1 2h-128l-1-2v-62z"/>
<path transform="translate(513,543)" d="m0 0h62l2 3-1 62-61 1-3-1-1-2v-61z"/>
<path transform="translate(993,1823)" d="m0 0h62l2 4v16l-1 45-61 1-4-2v-62z"/>
<path transform="translate(385,543)" d="m0 0h62l2 3-1 62-61 1-4-2v-62z"/>
<path transform="translate(1825,1823)" d="m0 0h62l2 4-1 61-61 1-4-2v-62z"/>
<path transform="translate(1825,159)" d="m0 0h62l2 4-1 61-61 1-4-2v-62z"/>
<path transform="translate(993,159)" d="m0 0h62l2 4-1 61-61 1-4-2v-62z"/>
<path transform="translate(737,1247)" d="m0 0h62l2 3-1 62h-64l-1-1v-62z"/>
<path transform="translate(161,1823)" d="m0 0h62l2 4-1 61-61 1-4-2v-62z"/>
<path transform="translate(161,159)" d="m0 0h62l2 4-1 61-61 1-4-2v-62z"/>
<path transform="translate(864,1343)" d="m0 0h63l2 3v60l-1 2h-64l-1-1v-63z"/>
<path transform="translate(865,1055)" d="m0 0h62l2 6-1 59-61 1-4-2v-62z"/>
<path transform="translate(641,543)" d="m0 0h62l2 6-1 59-61 1-3-1-1-2v-61z"/>
<path transform="translate(1185,1151)" d="m0 0h62l2 3-1 62-61 1-3-1-1-2v-61z"/>
</svg>